<?xml version="1.0" standalone="no"?>
<!DOCTYPE svg PUBLIC "-//W3C//DTD SVG 20010904//EN"
 "http://www.w3.org/TR/2001/REC-SVG-20010904/DTD/svg10.dtd">
<svg version="1.0" xmlns="http://www.w3.org/2000/svg"
 width="141.000000pt" height="128.000000pt" viewBox="0 0 141.000000 128.000000"
 preserveAspectRatio="xMidYMid meet">

<g transform="translate(0.000000,128.000000) scale(0.100000,-0.100000)"
fill="#000000" stroke="none">
<path d="M228 1096 c-29 -22 -50 -95 -55 -191 -4 -86 -3 -92 26 -141 18 -31
48 -63 75 -81 l46 -30 -45 -18 c-38 -14 -45 -21 -45 -43 0 -35 8 -46 49 -66
24 -13 51 -17 96 -14 l64 3 6 -31 c3 -17 25 -71 49 -121 38 -78 43 -95 39
-139 -5 -47 -3 -52 28 -78 29 -25 39 -27 78 -22 54 7 76 25 67 54 -7 20 -9 20
-43 5 -70 -29 -111 21 -61 74 l22 24 -27 24 c-25 24 -97 159 -97 184 0 6 6 11
13 11 8 0 21 21 30 48 9 26 25 72 36 102 l20 55 20 -48 c27 -62 26 -67 -3 -67
-14 0 -28 -4 -31 -10 -4 -6 8 -10 30 -10 32 0 38 -4 51 -35 8 -19 21 -35 30
-35 9 0 14 6 11 13 -57 142 -89 223 -91 225 -15 14 -42 -28 -78 -121 -34 -88
-44 -106 -46 -84 -4 37 -21 42 -90 27 -48 -10 -64 -9 -92 2 l-35 15 59 22 c50
18 63 20 91 10 35 -13 69 -6 63 13 -5 13 -9 16 -103 58 -122 54 -168 118 -163
223 2 44 6 56 11 42 5 -11 16 -37 24 -57 38 -92 142 -148 247 -133 66 9 346 9
412 0 125 -17 260 83 264 195 1 23 2 23 10 5 16 -37 11 -107 -11 -152 -28 -57
-78 -97 -171 -135 -57 -23 -78 -37 -78 -50 0 -22 27 -23 74 -4 30 13 40 12 95
-8 33 -11 61 -24 61 -27 0 -4 -20 -12 -44 -19 -32 -9 -53 -9 -82 -1 -78 22
-83 18 -114 -84 -17 -53 -79 -165 -96 -172 -19 -7 -17 -20 6 -50 27 -35 25
-61 -5 -75 -19 -8 -31 -8 -50 0 -40 18 -55 15 -55 -12 0 -19 8 -27 36 -36 91
-30 175 44 135 119 -7 13 3 42 39 117 27 54 50 110 52 123 3 24 6 24 73 22 86
-2 135 19 147 64 11 42 5 52 -41 66 -23 7 -41 14 -41 17 0 2 20 22 44 43 24
22 54 60 67 85 19 40 21 57 16 122 -9 124 -51 214 -92 199 -11 -5 -15 -21 -15
-65 0 -173 -97 -262 -254 -234 -33 6 -113 11 -176 11 -63 0 -143 -5 -176 -11
-102 -18 -191 18 -231 96 -9 17 -19 68 -22 116 -6 90 -17 104 -53 76z"/>
<path d="M773 726 c2 -6 14 -12 28 -14 50 -6 67 -12 73 -28 10 -27 -13 -44
-60 -44 -42 0 -44 1 -44 29 0 16 -7 34 -15 41 -13 11 -15 -1 -15 -99 l0 -111
65 0 c57 0 69 3 90 25 30 29 31 45 7 76 -17 20 -17 25 -5 51 13 25 13 32 -1
53 -12 17 -26 25 -49 26 -17 1 -42 3 -55 4 -13 1 -21 -2 -19 -9z m101 -132 c9
-8 16 -19 16 -23 0 -21 -30 -40 -72 -46 l-48 -7 0 46 0 46 44 0 c27 0 51 -6
60 -16z"/>
</g>
</svg>
